<mxfile host="app.diagrams.net" modified="2023-05-21T16:13:25.111Z" agent="Mozilla/5.0 (Windows NT 10.0; Win64; x64; rv:109.0) Gecko/20100101 Firefox/113.0" etag="HHsDxgCYFT4zF59-YQT7" version="21.3.2">
  <diagram name="Page-1" id="CWH5NlU9q9CjvMd9MiRt">
    <mxGraphModel dx="819" dy="447" grid="1" gridSize="10" guides="1" tooltips="1" connect="1" arrows="1" fold="1" page="1" pageScale="1" pageWidth="850" pageHeight="1100" math="0" shadow="0">
      <root>
        <mxCell id="0" />
        <mxCell id="1" parent="0" />
        <mxCell id="g-59Lqzh8wYiNMxXb3j5-24" style="edgeStyle=orthogonalEdgeStyle;rounded=0;orthogonalLoop=1;jettySize=auto;html=1;entryX=0;entryY=0.5;entryDx=0;entryDy=0;entryPerimeter=0;" edge="1" parent="1" source="TSLGlhMcsG2Oh3ILdl1S-15" target="g-59Lqzh8wYiNMxXb3j5-7">
          <mxGeometry relative="1" as="geometry" />
        </mxCell>
        <mxCell id="TSLGlhMcsG2Oh3ILdl1S-15" value="" style="rounded=0;whiteSpace=wrap;html=1;fillColor=none;" parent="1" vertex="1">
          <mxGeometry x="51.25" y="170" width="70" height="80" as="geometry" />
        </mxCell>
        <mxCell id="g-59Lqzh8wYiNMxXb3j5-26" style="edgeStyle=orthogonalEdgeStyle;rounded=0;orthogonalLoop=1;jettySize=auto;html=1;entryX=0;entryY=0.5;entryDx=0;entryDy=0;entryPerimeter=0;" edge="1" parent="1" source="TSLGlhMcsG2Oh3ILdl1S-17" target="g-59Lqzh8wYiNMxXb3j5-7">
          <mxGeometry relative="1" as="geometry" />
        </mxCell>
        <mxCell id="TSLGlhMcsG2Oh3ILdl1S-17" value="" style="rounded=0;whiteSpace=wrap;html=1;fillColor=none;" parent="1" vertex="1">
          <mxGeometry x="51.25" y="330" width="70" height="80" as="geometry" />
        </mxCell>
        <mxCell id="g-59Lqzh8wYiNMxXb3j5-25" style="edgeStyle=orthogonalEdgeStyle;rounded=0;orthogonalLoop=1;jettySize=auto;html=1;entryX=0;entryY=0.5;entryDx=0;entryDy=0;entryPerimeter=0;" edge="1" parent="1" source="TSLGlhMcsG2Oh3ILdl1S-16" target="g-59Lqzh8wYiNMxXb3j5-7">
          <mxGeometry relative="1" as="geometry" />
        </mxCell>
        <mxCell id="TSLGlhMcsG2Oh3ILdl1S-16" value="" style="rounded=0;whiteSpace=wrap;html=1;fillColor=none;" parent="1" vertex="1">
          <mxGeometry x="51" y="250" width="70" height="80" as="geometry" />
        </mxCell>
        <mxCell id="g-59Lqzh8wYiNMxXb3j5-23" style="edgeStyle=orthogonalEdgeStyle;rounded=0;orthogonalLoop=1;jettySize=auto;html=1;entryX=0;entryY=0.5;entryDx=0;entryDy=0;entryPerimeter=0;" edge="1" parent="1" source="TSLGlhMcsG2Oh3ILdl1S-7" target="g-59Lqzh8wYiNMxXb3j5-7">
          <mxGeometry relative="1" as="geometry" />
        </mxCell>
        <mxCell id="TSLGlhMcsG2Oh3ILdl1S-7" value="" style="rounded=0;whiteSpace=wrap;html=1;fillColor=none;" parent="1" vertex="1">
          <mxGeometry x="51" y="90" width="70" height="80" as="geometry" />
        </mxCell>
        <mxCell id="TSLGlhMcsG2Oh3ILdl1S-8" value="Enpoints" style="text;html=1;strokeColor=none;fillColor=none;align=center;verticalAlign=middle;whiteSpace=wrap;rounded=0;" parent="1" vertex="1">
          <mxGeometry x="55" y="410" width="60" height="30" as="geometry" />
        </mxCell>
        <mxCell id="TSLGlhMcsG2Oh3ILdl1S-28" value="OpenTelemetry" style="text;html=1;strokeColor=none;fillColor=none;align=center;verticalAlign=middle;whiteSpace=wrap;rounded=0;" parent="1" vertex="1">
          <mxGeometry x="180" y="410" width="90" height="30" as="geometry" />
        </mxCell>
        <mxCell id="g-59Lqzh8wYiNMxXb3j5-1" value="" style="sketch=0;pointerEvents=1;shadow=0;dashed=0;html=1;strokeColor=none;fillColor=#505050;labelPosition=center;verticalLabelPosition=bottom;verticalAlign=top;outlineConnect=0;align=center;shape=mxgraph.office.devices.workstation;" vertex="1" parent="1">
          <mxGeometry x="66.25" y="187" width="40" height="46" as="geometry" />
        </mxCell>
        <mxCell id="g-59Lqzh8wYiNMxXb3j5-2" value="" style="image;aspect=fixed;perimeter=ellipsePerimeter;html=1;align=center;shadow=0;dashed=0;spacingTop=3;image=img/lib/active_directory/generic_server.svg;" vertex="1" parent="1">
          <mxGeometry x="71" y="103.22" width="30" height="53.57" as="geometry" />
        </mxCell>
        <mxCell id="g-59Lqzh8wYiNMxXb3j5-4" value="" style="image;aspect=fixed;perimeter=ellipsePerimeter;html=1;align=center;shadow=0;dashed=0;spacingTop=3;image=img/lib/active_directory/databases.svg;" vertex="1" parent="1">
          <mxGeometry x="61.25" y="270" width="50" height="49" as="geometry" />
        </mxCell>
        <mxCell id="g-59Lqzh8wYiNMxXb3j5-5" value="" style="image;html=1;image=img/lib/clip_art/networking/Router_Icon_128x128.png" vertex="1" parent="1">
          <mxGeometry x="61.25" y="351" width="50" height="44" as="geometry" />
        </mxCell>
        <mxCell id="g-59Lqzh8wYiNMxXb3j5-29" style="edgeStyle=orthogonalEdgeStyle;rounded=0;orthogonalLoop=1;jettySize=auto;html=1;entryX=0.002;entryY=0.464;entryDx=0;entryDy=0;entryPerimeter=0;" edge="1" parent="1" source="g-59Lqzh8wYiNMxXb3j5-7" target="TSLGlhMcsG2Oh3ILdl1S-27">
          <mxGeometry relative="1" as="geometry" />
        </mxCell>
        <mxCell id="g-59Lqzh8wYiNMxXb3j5-7" value="" style="sketch=0;points=[[0,0,0],[0.25,0,0],[0.5,0,0],[0.75,0,0],[1,0,0],[0,1,0],[0.25,1,0],[0.5,1,0],[0.75,1,0],[1,1,0],[0,0.25,0],[0,0.5,0],[0,0.75,0],[1,0.25,0],[1,0.5,0],[1,0.75,0]];points=[[0,0,0],[0.25,0,0],[0.5,0,0],[0.75,0,0],[1,0,0],[0,1,0],[0.25,1,0],[0.5,1,0],[0.75,1,0],[1,1,0],[0,0.25,0],[0,0.5,0],[0,0.75,0],[1,0.25,0],[1,0.5,0],[1,0.75,0]];outlineConnect=0;fontColor=#232F3E;gradientColor=#F34482;gradientDirection=north;fillColor=#BC1356;strokeColor=#ffffff;dashed=0;verticalLabelPosition=bottom;verticalAlign=top;align=center;html=1;fontSize=12;fontStyle=0;aspect=fixed;shape=mxgraph.aws4.resourceIcon;resIcon=mxgraph.aws4.distro_for_opentelemetry;" vertex="1" parent="1">
          <mxGeometry x="180" y="200" width="90" height="90" as="geometry" />
        </mxCell>
        <mxCell id="g-59Lqzh8wYiNMxXb3j5-8" value="Grafana &lt;i&gt;Ecosystem&lt;/i&gt;" style="text;html=1;strokeColor=none;fillColor=none;align=center;verticalAlign=middle;whiteSpace=wrap;rounded=0;" vertex="1" parent="1">
          <mxGeometry x="430" y="410" width="130" height="30" as="geometry" />
        </mxCell>
        <mxCell id="g-59Lqzh8wYiNMxXb3j5-28" value="" style="group" vertex="1" connectable="0" parent="1">
          <mxGeometry x="320" y="160" width="350" height="183.57" as="geometry" />
        </mxCell>
        <mxCell id="TSLGlhMcsG2Oh3ILdl1S-27" value="" style="rounded=0;whiteSpace=wrap;html=1;fillColor=#ffe6cc;strokeColor=#d79b00;" parent="g-59Lqzh8wYiNMxXb3j5-28" vertex="1">
          <mxGeometry width="350" height="183.57" as="geometry" />
        </mxCell>
        <mxCell id="g-59Lqzh8wYiNMxXb3j5-10" value="&lt;b&gt;Grafana&lt;/b&gt;" style="ellipse;whiteSpace=wrap;html=1;fillColor=#f0a30a;strokeColor=#BD7000;fontColor=#000000;" vertex="1" parent="g-59Lqzh8wYiNMxXb3j5-28">
          <mxGeometry x="10" y="29" width="79" height="50" as="geometry" />
        </mxCell>
        <mxCell id="g-59Lqzh8wYiNMxXb3j5-12" value="&lt;b&gt;Loki&lt;/b&gt;" style="ellipse;whiteSpace=wrap;html=1;fillColor=#f0a30a;strokeColor=#BD7000;fontColor=#000000;" vertex="1" parent="g-59Lqzh8wYiNMxXb3j5-28">
          <mxGeometry x="131" y="29" width="79" height="50" as="geometry" />
        </mxCell>
        <mxCell id="g-59Lqzh8wYiNMxXb3j5-14" value="&lt;b&gt;Tempo&lt;/b&gt;" style="ellipse;whiteSpace=wrap;html=1;fillColor=#f0a30a;strokeColor=#BD7000;fontColor=#000000;" vertex="1" parent="g-59Lqzh8wYiNMxXb3j5-28">
          <mxGeometry x="250" y="29" width="79" height="50" as="geometry" />
        </mxCell>
        <mxCell id="g-59Lqzh8wYiNMxXb3j5-15" value="&lt;b&gt;Mimir&lt;/b&gt;" style="ellipse;whiteSpace=wrap;html=1;fillColor=#f0a30a;strokeColor=#BD7000;fontColor=#000000;" vertex="1" parent="g-59Lqzh8wYiNMxXb3j5-28">
          <mxGeometry x="75" y="109" width="79" height="50" as="geometry" />
        </mxCell>
        <mxCell id="g-59Lqzh8wYiNMxXb3j5-16" value="&lt;b&gt;Grafana Alerting&lt;br&gt;&lt;/b&gt;" style="ellipse;whiteSpace=wrap;html=1;fillColor=#f0a30a;strokeColor=#BD7000;fontColor=#000000;" vertex="1" parent="g-59Lqzh8wYiNMxXb3j5-28">
          <mxGeometry x="190" y="109" width="79" height="50" as="geometry" />
        </mxCell>
      </root>
    </mxGraphModel>
  </diagram>
</mxfile>
